# xmcd
#
# Track frame offsets: 
#        150
#        12878
#        25742
#        43229
#        59031
#        76164
#        87792
#        100499
#        112775
#        125171
#        137325
#        151884
#        164119
#        177399
#        191917
#        205381
#        218859
#        234027
#        246686
#        260001
#        274410
#        288850
#        299759
#        310498
#        324971
#
# Disc length: 4570 seconds
#
# Revision: 2
# Processed by: cddbd v1.5.2PL0 Copyright (c) Steve Scherf et al.
# Submitted via: ExactAudioCopyFreeDBPlugin 1.0
#
DISCID=7f11d819
DTITLE=Verschiedene - Milestones Of Legends - Delta Blues - CD06 - Big
DTITLE=Joe Williams
DYEAR=2018
DGENRE=Blues
TTITLE0=Big Joe Williams - Baby Please Don't Go
TTITLE1=Big Joe Williams - Crawlin' King Snake
TTITLE2=Big Joe Williams - Long Tall Woman. Skinny Mama Too
TTITLE3=Big Joe Williams - Highway 49
TTITLE4=Big Joe Williams - That Thing's in Town
TTITLE5=Big Joe Williams - King Biscuit Stomp
TTITLE6=Big Joe Williams - Sloppy Drunk Blues
TTITLE7=Big Joe Williams - Peach Orchard Mama
TTITLE8=Big Joe Williams - Jump, Baby, Jump!
TTITLE9=Big Joe Williams - Delta Blues
TTITLE10=Big Joe Williams - Stack of Dollars
TTITLE11=Big Joe Williams - Throw a Boogie Woogie
TTITLE12=Big Joe Williams - Drop Down Blues
TTITLE13=Big Joe Williams - Somebody's Been Worryin'
TTITLE14=Big Joe Williams - Don't Leave Me Here
TTITLE15=Big Joe Williams - Banta Rooster Blues
TTITLE16=Big Joe Williams - Blues Left Texas
TTITLE17=Big Joe Williams - I'm Getting Wild About Her
TTITLE18=Big Joe Williams - Walk on, Little Girl
TTITLE19=Big Joe Williams - Mellow Peaches
TTITLE20=Big Joe Williams - P Vine Blues
TTITLE21=Big Joe Williams - No. 13 Highway
TTITLE22=Big Joe Williams - I Got a Bad Mind
TTITLE23=Big Joe Williams - Arkansas Woman
TTITLE24=Big Joe Williams - I Done Stop Hollering
EXTD=
EXTT0=
EXTT1=
EXTT2=
EXTT3=
EXTT4=
EXTT5=
EXTT6=
EXTT7=
EXTT8=
EXTT9=
EXTT10=
EXTT11=
EXTT12=
EXTT13=
EXTT14=
EXTT15=
EXTT16=
EXTT17=
EXTT18=
EXTT19=
EXTT20=
EXTT21=
EXTT22=
EXTT23=
EXTT24=
PLAYORDER=
